<svg width="66" height="69" viewBox="0 0 66 69" xmlns="http://www.w3.org/2000/svg"><title></title><path d="M1.156 65.88c-1.027-1.89-.707-4.16.96-6.81l22.455-35.4V5.857h-2.856c-.774 0-1.443-.283-2.01-.848-.564-.567-.847-1.236-.847-2.01 0-.774.283-1.443.848-2.01.566-.564 1.235-.847 2.01-.847H44.57c.775 0 1.445.283 2.01.848.566.567.85 1.236.85 2.01 0 .774-.284 1.443-.85 2.01-.565.564-1.235.847-2.01.847h-2.856V23.67l22.456 35.4c1.666 2.65 1.986 4.92.96 6.81-1.027 1.89-3.118 2.834-6.273 2.834H7.43c-3.156 0-5.247-.945-6.274-2.835zM17.25 45.856h31.786L36.893 26.705 36 25.32V5.858h-5.714V25.32l-.893 1.385L17.25 45.857z" fill="#46A508" fill-rule="evenodd"/></svg>