<?xml version="1.0" encoding="UTF-8" standalone="no"?>
<svg xmlns:sketch="http://www.bohemiancoding.com/sketch/ns" xmlns="http://www.w3.org/2000/svg" height="157px" width="240px" version="1.1" xmlns:xlink="http://www.w3.org/1999/xlink" viewBox="0 0 240 157">
<g fill-rule="evenodd" sketch:type="MSPage" fill="none">
<g sketch:type="MSLayerGroup">
<path d="m0 0h240v0.17043h-240v-0.17043z" sketch:type="MSShapeGroup" fill="#FFFFFE"/>
<path sketch:type="MSShapeGroup" fill="#FF4601" d="m0 0.17043h240v156.4h-240v-156.4 0.00043z"/>
<path sketch:type="MSShapeGroup" fill="#FFFFFE" d="m17.428 7.3949c55.322-0.0141 110.64-0.002 165.97-0.0061 13.04 0.0081 26.08-0.018 39.12 0.0121-3 2.5866-6.12 5.0451-9.16 7.5811-30.05 24.685-60.1 49.374-90.16 74.059-1.08 0.842-2.07 1.807-3.21 2.577-1.67-1.247-3.23-2.641-4.85-3.938-32.57-26.769-65.164-53.499-97.712-80.285v-0.0001z"/>
<path sketch:type="MSShapeGroup" fill="#FFFFFE" d="m7.23 8.9889c23.814 19.566 47.632 39.128 71.448 58.692 3.246 2.695 6.55 5.319 9.756 8.06-23.852 19.558-47.67 39.159-71.51 58.729-3.226 2.67-6.482 5.3-9.694 7.99-0.034-16.74-0.012-33.48-0.01-50.215-0.004-27.754-7.018-55.503 0.01-83.256v-0.0001z"/>
<path sketch:type="MSShapeGroup" fill="#FFFFFE" d="m168.12 62.092c21.55-17.701 43.1-35.4 64.65-53.105 0.03 43.659 0.01 87.317 0.01 130.98-0.01 0.82 0.01 1.65 0.04 2.48-11.86-9.67-23.65-19.42-35.48-29.12-15.26-12.52-30.5-25.077-45.78-37.589 5.48-4.604 11.05-9.089 16.56-13.649z"/>
<path sketch:type="MSShapeGroup" fill="#FFFFFE" d="m81.752 91.173c4.262-3.487 8.496-7.008 12.776-10.475 8.492 6.976 16.982 13.949 25.472 20.922 8.49-6.977 16.99-13.938 25.47-20.922 27.89 22.852 55.72 45.772 83.6 68.652-59.36 0.02-118.72-0.01-178.08 0.01-2.39 0.08-4.784-0.06-7.178 0-10.958-0.01-21.916 0.01-32.876-0.01 23.606-19.39 47.21-38.79 70.816-58.177z"/>
<path d="m0 156.57h240v0.23h-240v-0.23z" sketch:type="MSShapeGroup" fill="#FFFFFE"/>
</g>
</g>
</svg>
