<svg width="256" height="25" viewBox="0 0 256 25" xmlns="http://www.w3.org/2000/svg"><title>thanks for subscribi</title><desc>Created with Sketch.</desc><g fill="none" fill-rule="evenodd"><g fill="#fff"><path d="M2.824 17.224c0 1.152.72 1.92 1.728 1.92s1.728-.768 1.728-1.92V9.256h.984c.888 0 1.656-.432 1.656-1.512 0-1.104-.768-1.512-1.656-1.512H6.28V4.168c0-1.152-.72-1.92-1.728-1.92s-1.728.768-1.728 1.92v2.064h-.768c-.864 0-1.512.648-1.512 1.512 0 .936.576 1.512 1.512 1.512h.768v7.968zm7.514 0c0 1.152.72 1.92 1.728 1.92s1.728-.768 1.728-1.92V11.2c0-1.344.792-2.376 2.208-2.376 1.248 0 2.256.768 2.256 2.376v6.024c0 1.152.72 1.92 1.728 1.92s1.728-.768 1.728-1.92V10.6c0-2.928-2.016-4.656-4.728-4.656-1.08 0-2.424.312-3.144 1.2h-.048V2.44c0-1.152-.72-1.92-1.728-1.92s-1.728.768-1.728 1.92v14.784zm26.402-8.88c0-.888 0-2.256-1.656-2.256-.84 0-1.56.6-1.656 1.44-.768-1.08-2.016-1.584-3.288-1.584-3.168 0-5.712 2.904-5.712 6.696 0 3.888 2.472 6.648 5.712 6.648 1.32 0 2.4-.552 3.288-1.608.24.912.648 1.464 1.656 1.464 1.656 0 1.656-1.368 1.656-2.256V8.344zm-8.856 4.296c0-1.656.84-3.528 2.736-3.528 1.824 0 2.664 1.872 2.664 3.528s-.864 3.48-2.664 3.48c-1.872 0-2.736-1.824-2.736-3.48zm12.074 4.584c0 1.152.72 1.92 1.728 1.92s1.728-.768 1.728-1.92V11.2c0-1.344.792-2.376 2.208-2.376 1.248 0 2.256.768 2.256 2.376v6.024c0 1.152.72 1.92 1.728 1.92s1.728-.768 1.728-1.92V10.6c0-2.928-2.016-4.656-4.728-4.656-1.632 0-2.664.48-3.336 1.416-.12-.792-.696-1.272-1.584-1.272-1.008 0-1.728.768-1.728 1.92v9.216zm14.594 0c0 1.152.72 1.92 1.728 1.92s1.728-.768 1.728-1.92v-4.2h.048l4.224 5.208c.552.672 1.032 1.056 1.656 1.056.912 0 1.632-.72 1.632-1.632 0-.384-.12-.792-.432-1.152l-4.056-4.752 3.072-2.736c.504-.456.672-.864.672-1.368 0-.768-.6-1.56-1.464-1.56-.456 0-1.008.216-1.56.744l-3.792 3.672V2.44c0-1.152-.72-1.92-1.728-1.92s-1.728.768-1.728 1.92v14.784zM76.49 8.44c0-1.704-2.616-2.496-4.32-2.496-2.736 0-4.68 1.632-4.68 4.032 0 3.96 6 3.72 6 5.304 0 .648-.312.984-1.368.984-1.632 0-2.232-1.176-3.576-1.176-.96 0-1.488 1.008-1.488 1.536 0 1.56 2.88 2.664 4.824 2.664 2.976 0 4.92-1.752 4.92-4.056 0-3.936-6-3.696-6-5.304 0-.672.552-.96 1.176-.96 1.128 0 2.448 1.008 3.096 1.008.816 0 1.416-.744 1.416-1.536zm11.26 8.784c0 1.152.72 1.92 1.728 1.92s1.728-.768 1.728-1.92V9.256h1.08c1.008 0 1.752-.432 1.752-1.512 0-1.104-.72-1.512-1.752-1.512h-1.08V4.816c0-1.272.576-1.272 1.152-1.272.96 0 1.416-.456 1.416-1.464 0-1.2-1.176-1.56-2.4-1.56-2.112 0-3.624 1.392-3.624 3.936v1.776h-.768c-.864 0-1.512.648-1.512 1.512 0 .936.576 1.512 1.512 1.512h.768v7.968zM101 5.944c-3.648 0-6.192 3.192-6.192 6.696 0 3.6 2.472 6.648 6.192 6.648s6.192-3.048 6.192-6.648c0-3.504-2.544-6.696-6.192-6.696zm0 3.168c1.896 0 2.736 1.872 2.736 3.528s-.864 3.48-2.736 3.48c-1.872 0-2.736-1.824-2.736-3.48s.84-3.528 2.736-3.528zm8.858 8.112c0 1.152.72 1.92 1.728 1.92s1.728-.768 1.728-1.92V11.92c0-1.368 1.056-1.824 2.088-2.304 1.032-.48 2.064-.552 2.064-1.68 0-1.248-.84-1.848-1.68-1.848-1.08 0-1.776.48-2.424 1.44h-.048c0-1.104-.768-1.44-1.68-1.44-.864 0-1.776.576-1.776 1.728v9.408zm25.66-8.784c0-1.704-2.616-2.496-4.32-2.496-2.736 0-4.68 1.632-4.68 4.032 0 3.96 6 3.72 6 5.304 0 .648-.312.984-1.368.984-1.632 0-2.232-1.176-3.576-1.176-.96 0-1.488 1.008-1.488 1.536 0 1.56 2.88 2.664 4.824 2.664 2.976 0 4.92-1.752 4.92-4.056 0-3.936-6-3.696-6-5.304 0-.672.552-.96 1.176-.96 1.128 0 2.448 1.008 3.096 1.008.816 0 1.416-.744 1.416-1.536zm2.786 5.808c0 3.072 2.04 5.04 5.688 5.04 3.648 0 5.688-1.968 5.688-5.04v-6.24c0-1.152-.72-1.92-1.728-1.92s-1.728.768-1.728 1.92v6.168c0 1.44-1.08 2.232-2.232 2.232-1.152 0-2.232-.792-2.232-2.232V8.008c0-1.152-.72-1.92-1.728-1.92s-1.728.768-1.728 1.92v6.24zm14.594 2.976c0 1.152.72 1.92 1.728 1.92.96 0 1.512-.528 1.728-1.44.648 1.056 1.992 1.584 3.168 1.584 3.48 0 5.688-3.24 5.688-6.504 0-3.36-1.848-6.84-5.568-6.84-1.2 0-2.376.408-3.288 1.2V2.44c0-1.152-.72-1.92-1.728-1.92s-1.728.768-1.728 1.92v14.784zm3.456-4.704c0-1.68.864-3.408 2.712-3.408 1.8 0 2.688 1.896 2.688 3.528 0 1.608-.888 3.48-2.688 3.48-1.896 0-2.712-1.92-2.712-3.6zm20.258-4.08c0-1.704-2.616-2.496-4.32-2.496-2.736 0-4.68 1.632-4.68 4.032 0 3.96 6 3.72 6 5.304 0 .648-.312.984-1.368.984-1.632 0-2.232-1.176-3.576-1.176-.96 0-1.488 1.008-1.488 1.536 0 1.56 2.88 2.664 4.824 2.664 2.976 0 4.92-1.752 4.92-4.056 0-3.936-6-3.696-6-5.304 0-.672.552-.96 1.176-.96 1.128 0 2.448 1.008 3.096 1.008.816 0 1.416-.744 1.416-1.536zm12.698-.312c0-1.68-2.856-2.184-4.224-2.184-3.648 0-6.192 3.192-6.192 6.696 0 3.6 2.472 6.648 6.192 6.648 1.248 0 4.224-.6 4.224-2.376 0-.816-.672-1.512-1.488-1.512-.408 0-1.704.72-2.568.72-1.872 0-2.904-1.776-2.904-3.48 0-1.776.936-3.528 2.904-3.528 1.104 0 1.872.672 2.736.672.816 0 1.32-.936 1.32-1.656zm2.402 9.096c0 1.152.72 1.92 1.728 1.92s1.728-.768 1.728-1.92V11.92c0-1.368 1.056-1.824 2.088-2.304 1.032-.48 2.064-.552 2.064-1.68 0-1.248-.84-1.848-1.68-1.848-1.08 0-1.776.48-2.424 1.44h-.048c0-1.104-.768-1.44-1.68-1.44-.864 0-1.776.576-1.776 1.728v9.408zm9.242 0c0 1.152.72 1.92 1.728 1.92s1.728-.768 1.728-1.92V8.008c0-1.152-.72-1.92-1.728-1.92s-1.728.768-1.728 1.92v9.216zm1.728-16.32c-1.032 0-1.944.912-1.944 1.896 0 1.056.912 1.992 1.944 1.992 1.08 0 1.944-.912 1.944-1.992 0-1.008-.912-1.896-1.944-1.896zm4.898 16.32c0 1.152.72 1.92 1.728 1.92.96 0 1.512-.528 1.728-1.44.648 1.056 1.992 1.584 3.168 1.584 3.48 0 5.688-3.24 5.688-6.504 0-3.36-1.848-6.84-5.568-6.84-1.2 0-2.376.408-3.288 1.2V2.44c0-1.152-.72-1.92-1.728-1.92s-1.728.768-1.728 1.92v14.784zm3.456-4.704c0-1.68.864-3.408 2.712-3.408 1.8 0 2.688 1.896 2.688 3.528 0 1.608-.888 3.48-2.688 3.48-1.896 0-2.712-1.92-2.712-3.6zm11.522 4.704c0 1.152.72 1.92 1.728 1.92s1.728-.768 1.728-1.92V8.008c0-1.152-.72-1.92-1.728-1.92s-1.728.768-1.728 1.92v9.216zm1.728-16.32c-1.032 0-1.944.912-1.944 1.896 0 1.056.912 1.992 1.944 1.992 1.08 0 1.944-.912 1.944-1.992 0-1.008-.912-1.896-1.944-1.896zm4.898 16.32c0 1.152.72 1.92 1.728 1.92s1.728-.768 1.728-1.92V11.2c0-1.344.792-2.376 2.208-2.376 1.248 0 2.256.768 2.256 2.376v6.024c0 1.152.72 1.92 1.728 1.92s1.728-.768 1.728-1.92V10.6c0-2.928-2.016-4.656-4.728-4.656-1.632 0-2.664.48-3.336 1.416-.12-.792-.696-1.272-1.584-1.272-1.008 0-1.728.768-1.728 1.92v9.216zm26.402-9.216c0-1.152-.72-1.92-1.728-1.92-.96 0-1.512.528-1.728 1.44-.648-1.056-1.992-1.584-3.168-1.584-3.48 0-5.688 3.24-5.688 6.72 0 3.432 1.704 6.624 5.328 6.624 1.584 0 2.76-.576 3.48-1.632h.048v.816c0 1.752-1.248 2.736-2.928 2.736-1.992 0-3.216-1.08-4.32-1.08-.672 0-1.392.864-1.392 1.512 0 1.896 4.032 2.592 5.448 2.592 3.936 0 6.648-2.088 6.648-6.24V8.008zm-3.456 4.704c0 1.68-.864 3.408-2.712 3.408-1.8 0-2.688-1.68-2.688-3.528 0-1.608.888-3.48 2.688-3.48 1.896 0 2.712 1.92 2.712 3.6z"/></g></g></svg>
