<svg xmlns="http://www.w3.org/2000/svg" width="256" height="25" viewBox="0 0 256 25" version="1.1"><title>subscribe-header-thanks</title><desc>Created with Sketch.</desc><g stroke="none" stroke-width="1" fill="none" fill-rule="evenodd"><g fill="#000000"><path d="M2.82 17.22C2.82 18.38 3.54 19.14 4.55 19.14 5.56 19.14 6.28 18.38 6.28 17.22L6.28 9.26 7.26 9.26C8.15 9.26 8.92 8.82 8.92 7.74 8.92 6.64 8.15 6.23 7.26 6.23L6.28 6.23 6.28 4.17C6.28 3.02 5.56 2.25 4.55 2.25 3.54 2.25 2.82 3.02 2.82 4.17L2.82 6.23 2.06 6.23C1.19 6.23 0.54 6.88 0.54 7.74 0.54 8.68 1.12 9.26 2.06 9.26L2.82 9.26 2.82 17.22 2.82 17.22ZM10.34 17.22C10.34 18.38 11.06 19.14 12.07 19.14 13.07 19.14 13.79 18.38 13.79 17.22L13.79 11.2C13.79 9.86 14.59 8.82 16 8.82 17.25 8.82 18.26 9.59 18.26 11.2L18.26 17.22C18.26 18.38 18.98 19.14 19.99 19.14 20.99 19.14 21.71 18.38 21.71 17.22L21.71 10.6C21.71 7.67 19.7 5.94 16.99 5.94 15.91 5.94 14.56 6.26 13.84 7.14L13.79 7.14 13.79 2.44C13.79 1.29 13.07 0.52 12.07 0.52 11.06 0.52 10.34 1.29 10.34 2.44L10.34 17.22 10.34 17.22ZM36.74 8.34C36.74 7.46 36.74 6.09 35.08 6.09 34.24 6.09 33.52 6.69 33.43 7.53 32.66 6.45 31.41 5.94 30.14 5.94 26.97 5.94 24.43 8.85 24.43 12.64 24.43 16.53 26.9 19.29 30.14 19.29 31.46 19.29 32.54 18.74 33.43 17.68 33.67 18.59 34.08 19.14 35.08 19.14 36.74 19.14 36.74 17.78 36.74 16.89L36.74 8.34 36.74 8.34ZM27.88 12.64C27.88 10.98 28.72 9.11 30.62 9.11 32.44 9.11 33.28 10.98 33.28 12.64 33.28 14.3 32.42 16.12 30.62 16.12 28.75 16.12 27.88 14.3 27.88 12.64L27.88 12.64ZM39.96 17.22C39.96 18.38 40.68 19.14 41.69 19.14 42.69 19.14 43.41 18.38 43.41 17.22L43.41 11.2C43.41 9.86 44.21 8.82 45.62 8.82 46.87 8.82 47.88 9.59 47.88 11.2L47.88 17.22C47.88 18.38 48.6 19.14 49.61 19.14 50.61 19.14 51.33 18.38 51.33 17.22L51.33 10.6C51.33 7.67 49.32 5.94 46.61 5.94 44.97 5.94 43.94 6.42 43.27 7.36 43.15 6.57 42.57 6.09 41.69 6.09 40.68 6.09 39.96 6.86 39.96 8.01L39.96 17.22 39.96 17.22ZM54.55 17.22C54.55 18.38 55.27 19.14 56.28 19.14 57.29 19.14 58.01 18.38 58.01 17.22L58.01 13.02 58.06 13.02 62.28 18.23C62.83 18.9 63.31 19.29 63.94 19.29 64.85 19.29 65.57 18.57 65.57 17.66 65.57 17.27 65.45 16.86 65.14 16.5L61.08 11.75 64.15 9.02C64.66 8.56 64.82 8.15 64.82 7.65 64.82 6.88 64.22 6.09 63.36 6.09 62.9 6.09 62.35 6.3 61.8 6.83L58.01 10.5 58.01 2.44C58.01 1.29 57.29 0.52 56.28 0.52 55.27 0.52 54.55 1.29 54.55 2.44L54.55 17.22 54.55 17.22ZM76.49 8.44C76.49 6.74 73.87 5.94 72.17 5.94 69.43 5.94 67.49 7.58 67.49 9.98 67.49 13.94 73.49 13.7 73.49 15.28 73.49 15.93 73.18 16.26 72.12 16.26 70.49 16.26 69.89 15.09 68.55 15.09 67.59 15.09 67.06 16.1 67.06 16.62 67.06 18.18 69.94 19.29 71.88 19.29 74.86 19.29 76.8 17.54 76.8 15.23 76.8 11.3 70.8 11.54 70.8 9.93 70.8 9.26 71.35 8.97 71.98 8.97 73.11 8.97 74.43 9.98 75.07 9.98 75.89 9.98 76.49 9.23 76.49 8.44L76.49 8.44ZM87.75 17.22C87.75 18.38 88.47 19.14 89.48 19.14 90.49 19.14 91.21 18.38 91.21 17.22L91.21 9.26 92.29 9.26C93.29 9.26 94.04 8.82 94.04 7.74 94.04 6.64 93.32 6.23 92.29 6.23L91.21 6.23 91.21 4.82C91.21 3.54 91.78 3.54 92.36 3.54 93.32 3.54 93.77 3.09 93.77 2.08 93.77 0.88 92.6 0.52 91.37 0.52 89.26 0.52 87.75 1.91 87.75 4.46L87.75 6.23 86.98 6.23C86.12 6.23 85.47 6.88 85.47 7.74 85.47 8.68 86.05 9.26 86.98 9.26L87.75 9.26 87.75 17.22 87.75 17.22ZM101 5.94C97.35 5.94 94.81 9.14 94.81 12.64 94.81 16.24 97.28 19.29 101 19.29 104.72 19.29 107.19 16.24 107.19 12.64 107.19 9.14 104.65 5.94 101 5.94L101 5.94ZM101 9.11C102.9 9.11 103.74 10.98 103.74 12.64 103.74 14.3 102.87 16.12 101 16.12 99.13 16.12 98.26 14.3 98.26 12.64 98.26 10.98 99.1 9.11 101 9.11L101 9.11ZM109.86 17.22C109.86 18.38 110.58 19.14 111.59 19.14 112.59 19.14 113.31 18.38 113.31 17.22L113.31 11.92C113.31 10.55 114.37 10.1 115.4 9.62 116.43 9.14 117.47 9.06 117.47 7.94 117.47 6.69 116.63 6.09 115.79 6.09 114.71 6.09 114.01 6.57 113.36 7.53L113.31 7.53C113.31 6.42 112.55 6.09 111.63 6.09 110.77 6.09 109.86 6.66 109.86 7.82L109.86 17.22 109.86 17.22ZM135.52 8.44C135.52 6.74 132.9 5.94 131.2 5.94 128.46 5.94 126.52 7.58 126.52 9.98 126.52 13.94 132.52 13.7 132.52 15.28 132.52 15.93 132.21 16.26 131.15 16.26 129.52 16.26 128.92 15.09 127.57 15.09 126.61 15.09 126.09 16.1 126.09 16.62 126.09 18.18 128.97 19.29 130.91 19.29 133.89 19.29 135.83 17.54 135.83 15.23 135.83 11.3 129.83 11.54 129.83 9.93 129.83 9.26 130.38 8.97 131.01 8.97 132.13 8.97 133.45 9.98 134.1 9.98 134.92 9.98 135.52 9.23 135.52 8.44L135.52 8.44ZM138.3 14.25C138.3 17.32 140.34 19.29 143.99 19.29 147.64 19.29 149.68 17.32 149.68 14.25L149.68 8.01C149.68 6.86 148.96 6.09 147.95 6.09 146.94 6.09 146.22 6.86 146.22 8.01L146.22 14.18C146.22 15.62 145.14 16.41 143.99 16.41 142.84 16.41 141.76 15.62 141.76 14.18L141.76 8.01C141.76 6.86 141.04 6.09 140.03 6.09 139.02 6.09 138.3 6.86 138.3 8.01L138.3 14.25 138.3 14.25ZM152.9 17.22C152.9 18.38 153.62 19.14 154.63 19.14 155.59 19.14 156.14 18.62 156.35 17.7 157 18.76 158.35 19.29 159.52 19.29 163 19.29 165.21 16.05 165.21 12.78 165.21 9.42 163.36 5.94 159.64 5.94 158.44 5.94 157.27 6.35 156.35 7.14L156.35 2.44C156.35 1.29 155.63 0.52 154.63 0.52 153.62 0.52 152.9 1.29 152.9 2.44L152.9 17.22 152.9 17.22ZM156.35 12.52C156.35 10.84 157.22 9.11 159.07 9.11 160.87 9.11 161.75 11.01 161.75 12.64 161.75 14.25 160.87 16.12 159.07 16.12 157.17 16.12 156.35 14.2 156.35 12.52L156.35 12.52ZM176.61 8.44C176.61 6.74 174 5.94 172.29 5.94 169.56 5.94 167.61 7.58 167.61 9.98 167.61 13.94 173.61 13.7 173.61 15.28 173.61 15.93 173.3 16.26 172.24 16.26 170.61 16.26 170.01 15.09 168.67 15.09 167.71 15.09 167.18 16.1 167.18 16.62 167.18 18.18 170.06 19.29 172 19.29 174.98 19.29 176.92 17.54 176.92 15.23 176.92 11.3 170.92 11.54 170.92 9.93 170.92 9.26 171.48 8.97 172.1 8.97 173.23 8.97 174.55 9.98 175.2 9.98 176.01 9.98 176.61 9.23 176.61 8.44L176.61 8.44ZM189.31 8.13C189.31 6.45 186.45 5.94 185.09 5.94 181.44 5.94 178.89 9.14 178.89 12.64 178.89 16.24 181.37 19.29 185.09 19.29 186.33 19.29 189.31 18.69 189.31 16.91 189.31 16.1 188.64 15.4 187.82 15.4 187.41 15.4 186.12 16.12 185.25 16.12 183.38 16.12 182.35 14.34 182.35 12.64 182.35 10.86 183.29 9.11 185.25 9.11 186.36 9.11 187.13 9.78 187.99 9.78 188.81 9.78 189.31 8.85 189.31 8.13L189.31 8.13ZM191.71 17.22C191.71 18.38 192.43 19.14 193.44 19.14 194.45 19.14 195.17 18.38 195.17 17.22L195.17 11.92C195.17 10.55 196.22 10.1 197.26 9.62 198.29 9.14 199.32 9.06 199.32 7.94 199.32 6.69 198.48 6.09 197.64 6.09 196.56 6.09 195.86 6.57 195.22 7.53L195.17 7.53C195.17 6.42 194.4 6.09 193.49 6.09 192.62 6.09 191.71 6.66 191.71 7.82L191.71 17.22 191.71 17.22ZM200.95 17.22C200.95 18.38 201.67 19.14 202.68 19.14 203.69 19.14 204.41 18.38 204.41 17.22L204.41 8.01C204.41 6.86 203.69 6.09 202.68 6.09 201.67 6.09 200.95 6.86 200.95 8.01L200.95 17.22 200.95 17.22ZM202.68 0.9C201.65 0.9 200.74 1.82 200.74 2.8 200.74 3.86 201.65 4.79 202.68 4.79 203.76 4.79 204.63 3.88 204.63 2.8 204.63 1.79 203.71 0.9 202.68 0.9L202.68 0.9ZM207.58 17.22C207.58 18.38 208.3 19.14 209.31 19.14 210.27 19.14 210.82 18.62 211.04 17.7 211.68 18.76 213.03 19.29 214.2 19.29 217.68 19.29 219.89 16.05 219.89 12.78 219.89 9.42 218.04 5.94 214.32 5.94 213.12 5.94 211.95 6.35 211.04 7.14L211.04 2.44C211.04 1.29 210.32 0.52 209.31 0.52 208.3 0.52 207.58 1.29 207.58 2.44L207.58 17.22 207.58 17.22ZM211.04 12.52C211.04 10.84 211.9 9.11 213.75 9.11 215.55 9.11 216.44 11.01 216.44 12.64 216.44 14.25 215.55 16.12 213.75 16.12 211.85 16.12 211.04 14.2 211.04 12.52L211.04 12.52ZM222.56 17.22C222.56 18.38 223.28 19.14 224.29 19.14 225.29 19.14 226.01 18.38 226.01 17.22L226.01 8.01C226.01 6.86 225.29 6.09 224.29 6.09 223.28 6.09 222.56 6.86 222.56 8.01L222.56 17.22 222.56 17.22ZM224.29 0.9C223.25 0.9 222.34 1.82 222.34 2.8 222.34 3.86 223.25 4.79 224.29 4.79 225.37 4.79 226.23 3.88 226.23 2.8 226.23 1.79 225.32 0.9 224.29 0.9L224.29 0.9ZM229.18 17.22C229.18 18.38 229.9 19.14 230.91 19.14 231.92 19.14 232.64 18.38 232.64 17.22L232.64 11.2C232.64 9.86 233.43 8.82 234.85 8.82 236.1 8.82 237.1 9.59 237.1 11.2L237.1 17.22C237.1 18.38 237.82 19.14 238.83 19.14 239.84 19.14 240.56 18.38 240.56 17.22L240.56 10.6C240.56 7.67 238.54 5.94 235.83 5.94 234.2 5.94 233.17 6.42 232.5 7.36 232.38 6.57 231.8 6.09 230.91 6.09 229.9 6.09 229.18 6.86 229.18 8.01L229.18 17.22 229.18 17.22ZM255.59 8.01C255.59 6.86 254.87 6.09 253.86 6.09 252.9 6.09 252.35 6.62 252.13 7.53 251.48 6.47 250.14 5.94 248.96 5.94 245.48 5.94 243.27 9.18 243.27 12.66 243.27 16.1 244.98 19.29 248.6 19.29 250.19 19.29 251.36 18.71 252.08 17.66L252.13 17.66 252.13 18.47C252.13 20.22 250.88 21.21 249.2 21.21 247.21 21.21 245.99 20.13 244.88 20.13 244.21 20.13 243.49 20.99 243.49 21.64 243.49 23.54 247.52 24.23 248.94 24.23 252.87 24.23 255.59 22.14 255.59 17.99L255.59 8.01 255.59 8.01ZM252.13 12.71C252.13 14.39 251.27 16.12 249.42 16.12 247.62 16.12 246.73 14.44 246.73 12.59 246.73 10.98 247.62 9.11 249.42 9.11 251.31 9.11 252.13 11.03 252.13 12.71L252.13 12.71Z"/></g></g></svg>
