<?xml version="1.0" encoding="UTF-8" standalone="no"?>
<svg xmlns:sketch="http://www.bohemiancoding.com/sketch/ns" xmlns="http://www.w3.org/2000/svg" height="20px" width="313px" version="1.1" xmlns:xlink="http://www.w3.org/1999/xlink" viewBox="0 0 313 20">
<g fill-rule="evenodd" sketch:type="MSPage" fill="none">
<g sketch:type="MSLayerGroup">
<path sketch:type="MSShapeGroup" fill="#fff" d="m9.672 8.44c0-1.704-2.616-2.496-4.32-2.496-2.736 0-4.68 1.632-4.68 4.032 0 3.96 6 3.72 6 5.304 0 0.648-0.312 0.984-1.368 0.984-1.632 0-2.232-1.176-3.576-1.176-0.96 0-1.488 1.008-1.488 1.536 0 1.56 2.88 2.664 4.824 2.664 2.976 0 4.92-1.752 4.92-4.056 0-3.936-6-3.696-6-5.304 0-0.672 0.552-0.96 1.176-0.96 1.128 0 2.448 1.008 3.096 1.008 0.816 0 1.416-0.744 1.416-1.536zm2.786 5.808c0 3.072 2.04 5.04 5.688 5.04s5.688-1.968 5.688-5.04v-6.24c0-1.152-0.72-1.92-1.728-1.92s-1.728 0.768-1.728 1.92v6.168c0 1.44-1.08 2.232-2.232 2.232s-2.232-0.792-2.232-2.232v-6.168c0-1.152-0.72-1.92-1.728-1.92s-1.728 0.768-1.728 1.92v6.24zm14.594 2.976c0 1.152 0.72 1.92 1.728 1.92 0.96 0 1.512-0.528 1.728-1.44 0.648 1.056 1.992 1.584 3.168 1.584 3.48 0 5.688-3.24 5.688-6.504 0-3.36-1.848-6.84-5.568-6.84-1.2 0-2.376 0.408-3.288 1.2v-4.704c0-1.152-0.72-1.92-1.728-1.92s-1.728 0.768-1.728 1.92v14.784zm3.456-4.704c0-1.68 0.864-3.408 2.712-3.408 1.8 0 2.688 1.896 2.688 3.528 0 1.608-0.888 3.48-2.688 3.48-1.896 0-2.712-1.92-2.712-3.6zm20.258-4.08c0-1.704-2.616-2.496-4.32-2.496-2.736 0-4.68 1.632-4.68 4.032 0 3.96 6 3.72 6 5.304 0 0.648-0.312 0.984-1.368 0.984-1.632 0-2.232-1.176-3.576-1.176-0.96 0-1.488 1.008-1.488 1.536 0 1.56 2.88 2.664 4.824 2.664 2.976 0 4.92-1.752 4.92-4.056 0-3.936-6-3.696-6-5.304 0-0.672 0.552-0.96 1.176-0.96 1.128 0 2.448 1.008 3.096 1.008 0.816 0 1.416-0.744 1.416-1.536zm12.698-0.312c0-1.68-2.856-2.184-4.224-2.184-3.648 0-6.192 3.192-6.192 6.696 0 3.6 2.472 6.648 6.192 6.648 1.248 0 4.224-0.6 4.224-2.376 0-0.816-0.672-1.512-1.488-1.512-0.408 0-1.704 0.72-2.568 0.72-1.872 0-2.904-1.776-2.904-3.48 0-1.776 0.936-3.528 2.904-3.528 1.104 0 1.872 0.672 2.736 0.672 0.816 0 1.32-0.936 1.32-1.656zm2.402 9.096c0 1.152 0.72 1.92 1.728 1.92s1.728-0.768 1.728-1.92v-5.304c0-1.368 1.056-1.824 2.088-2.304s2.064-0.552 2.064-1.68c0-1.248-0.84-1.848-1.68-1.848-1.08 0-1.776 0.48-2.424 1.44h-0.048c0-1.104-0.768-1.44-1.68-1.44-0.864 0-1.776 0.576-1.776 1.728v9.408zm9.242 0c0 1.152 0.72 1.92 1.728 1.92s1.728-0.768 1.728-1.92v-9.216c0-1.152-0.72-1.92-1.728-1.92s-1.728 0.768-1.728 1.92v9.216zm1.728-16.32c-1.032 0-1.944 0.912-1.944 1.896 0 1.056 0.912 1.992 1.944 1.992 1.08 0 1.944-0.912 1.944-1.992 0-1.008-0.912-1.896-1.944-1.896zm4.898 16.32c0 1.152 0.72 1.92 1.728 1.92 0.96 0 1.512-0.528 1.728-1.44 0.648 1.056 1.992 1.584 3.168 1.584 3.48 0 5.688-3.24 5.688-6.504 0-3.36-1.848-6.84-5.568-6.84-1.2 0-2.376 0.408-3.288 1.2v-4.704c0-1.152-0.72-1.92-1.728-1.92s-1.728 0.768-1.728 1.92v14.784zm3.456-4.704c0-1.68 0.864-3.408 2.712-3.408 1.8 0 2.688 1.896 2.688 3.528 0 1.608-0.888 3.48-2.688 3.48-1.896 0-2.712-1.92-2.712-3.6zm21.72 1.248c1.06 0 1.51-0.504 1.51-1.536 0-2.88-2.47-6.288-6.21-6.288-3.65 0-6.194 3.192-6.194 6.696 0 3.816 2.592 6.648 6.484 6.648 2.56 0 5.64-1.44 5.64-2.928 0-0.744-0.68-1.488-1.42-1.488-0.91 0-2.14 1.392-3.91 1.392-1.61 0-3.026-0.792-3.266-2.496h7.366zm-7.438-2.304c0.168-1.464 1.198-2.64 2.738-2.64 1.61 0 2.57 1.128 2.76 2.64h-5.498zm19.948 5.76c0 1.152 0.72 1.92 1.73 1.92s1.73-0.768 1.73-1.92v-7.968h0.98c0.89 0 1.66-0.432 1.66-1.512 0-1.104-0.77-1.512-1.66-1.512h-0.98v-2.064c0-1.152-0.72-1.92-1.73-1.92s-1.73 0.768-1.73 1.92v2.064h-0.77c-0.86 0-1.51 0.648-1.51 1.512 0 0.936 0.58 1.512 1.51 1.512h0.77v7.968zm13.2-11.28c-3.65 0-6.19 3.192-6.19 6.696 0 3.6 2.47 6.648 6.19 6.648s6.19-3.048 6.19-6.648c0-3.504-2.54-6.696-6.19-6.696zm0 3.168c1.9 0 2.74 1.872 2.74 3.528s-0.87 3.48-2.74 3.48-2.73-1.824-2.73-3.48 0.84-3.528 2.73-3.528zm22.28-3.168c-3.65 0-6.19 3.192-6.19 6.696 0 3.6 2.47 6.648 6.19 6.648s6.19-3.048 6.19-6.648c0-3.504-2.54-6.696-6.19-6.696zm0 3.168c1.89 0 2.73 1.872 2.73 3.528s-0.86 3.48-2.73 3.48-2.74-1.824-2.74-3.48 0.84-3.528 2.74-3.528zm8.9 5.136c0 3.072 2.04 5.04 5.69 5.04s5.69-1.968 5.69-5.04v-6.24c0-1.152-0.72-1.92-1.73-1.92s-1.73 0.768-1.73 1.92v6.168c0 1.44-1.08 2.232-2.23 2.232s-2.23-0.792-2.23-2.232v-6.168c0-1.152-0.72-1.92-1.73-1.92s-1.73 0.768-1.73 1.92v6.24zm14.55 2.976c0 1.152 0.72 1.92 1.73 1.92s1.73-0.768 1.73-1.92v-5.304c0-1.368 1.05-1.824 2.08-2.304 1.04-0.48 2.07-0.552 2.07-1.68 0-1.248-0.84-1.848-1.68-1.848-1.08 0-1.78 0.48-2.43 1.44h-0.04c0-1.104-0.77-1.44-1.68-1.44-0.87 0-1.78 0.576-1.78 1.728v9.408z"/>
<path sketch:type="MSShapeGroup" fill="#BFE1F6" d="m192.98 17.224c0 1.152 0.72 1.92 1.73 1.92s1.73-0.768 1.73-1.92v-6.024c0-1.344 0.79-2.376 2.21-2.376 1.25 0 2.25 0.768 2.25 2.376v6.024c0 1.152 0.72 1.92 1.73 1.92s1.73-0.768 1.73-1.92v-6.624c0-2.928-2.02-4.656-4.73-4.656-1.63 0-2.66 0.48-3.33 1.416-0.12-0.792-0.7-1.272-1.59-1.272-1.01 0-1.73 0.768-1.73 1.92v9.216zm24.75-3.456c1.06 0 1.51-0.504 1.51-1.536 0-2.88-2.47-6.288-6.21-6.288-3.65 0-6.2 3.192-6.2 6.696 0 3.816 2.6 6.648 6.48 6.648 2.57 0 5.64-1.44 5.64-2.928 0-0.744-0.67-1.488-1.41-1.488-0.91 0-2.14 1.392-3.91 1.392-1.61 0-3.03-0.792-3.27-2.496h7.37zm-7.44-2.304c0.17-1.464 1.2-2.64 2.74-2.64 1.6 0 2.56 1.128 2.76 2.64h-5.5zm13.9 5.928c0.36 1.008 0.96 1.752 2.09 1.752 1.05 0 1.68-0.6 1.99-1.608l1.77-5.568h0.05l1.78 5.568c0.31 1.008 0.93 1.608 1.99 1.608 1.13 0 1.73-0.744 2.09-1.752l2.95-8.328c0.17-0.528 0.34-0.912 0.34-1.296 0-1.056-0.72-1.68-1.73-1.68-0.84 0-1.44 0.552-1.63 1.368l-2 6.6h-0.04l-2.02-6.456c-0.26-0.936-0.74-1.512-1.75-1.512s-1.49 0.576-1.75 1.512l-2.02 6.456h-0.05l-1.99-6.6c-0.19-0.816-0.79-1.368-1.63-1.368-1.01 0-1.73 0.624-1.73 1.392 0 0.504 0.12 0.936 0.36 1.632l2.93 8.28zm26.14-8.952c0-1.704-2.62-2.496-4.32-2.496-2.74 0-4.68 1.632-4.68 4.032 0 3.96 6 3.72 6 5.304 0 0.648-0.32 0.984-1.37 0.984-1.63 0-2.23-1.176-3.58-1.176-0.96 0-1.49 1.008-1.49 1.536 0 1.56 2.88 2.664 4.83 2.664 2.97 0 4.92-1.752 4.92-4.056 0-3.936-6-3.696-6-5.304 0-0.672 0.55-0.96 1.17-0.96 1.13 0 2.45 1.008 3.1 1.008 0.82 0 1.42-0.744 1.42-1.536zm2.73 8.784c0 1.152 0.72 1.92 1.73 1.92s1.73-0.768 1.73-1.92v-14.784c0-1.152-0.72-1.92-1.73-1.92s-1.73 0.768-1.73 1.92v14.784zm16.78-3.456c1.06 0 1.51-0.504 1.51-1.536 0-2.88-2.47-6.288-6.21-6.288-3.65 0-6.19 3.192-6.19 6.696 0 3.816 2.59 6.648 6.48 6.648 2.56 0 5.64-1.44 5.64-2.928 0-0.744-0.68-1.488-1.42-1.488-0.91 0-2.14 1.392-3.91 1.392-1.61 0-3.03-0.792-3.27-2.496h7.37zm-7.44-2.304c0.17-1.464 1.2-2.64 2.74-2.64 1.61 0 2.57 1.128 2.76 2.64h-5.5zm12.27 5.76c0 1.152 0.72 1.92 1.73 1.92 1 0 1.72-0.768 1.72-1.92v-7.968h0.99c0.89 0 1.65-0.432 1.65-1.512 0-1.104-0.76-1.512-1.65-1.512h-0.99v-2.064c0-1.152-0.72-1.92-1.72-1.92-1.01 0-1.73 0.768-1.73 1.92v2.064h-0.77c-0.86 0-1.51 0.648-1.51 1.512 0 0.936 0.57 1.512 1.51 1.512h0.77v7.968zm8.35 0c0 1.152 0.72 1.92 1.73 1.92s1.73-0.768 1.73-1.92v-7.968h0.98c0.89 0 1.66-0.432 1.66-1.512 0-1.104-0.77-1.512-1.66-1.512h-0.98v-2.064c0-1.152-0.72-1.92-1.73-1.92s-1.73 0.768-1.73 1.92v2.064h-0.77c-0.86 0-1.51 0.648-1.51 1.512 0 0.936 0.58 1.512 1.51 1.512h0.77v7.968zm17.67-3.456c1.05 0 1.51-0.504 1.51-1.536 0-2.88-2.47-6.288-6.22-6.288-3.64 0-6.19 3.192-6.19 6.696 0 3.816 2.59 6.648 6.48 6.648 2.57 0 5.64-1.44 5.64-2.928 0-0.744-0.67-1.488-1.41-1.488-0.92 0-2.14 1.392-3.92 1.392-1.6 0-3.02-0.792-3.26-2.496h7.37zm-7.44-2.304c0.17-1.464 1.2-2.64 2.73-2.64 1.61 0 2.57 1.128 2.76 2.64h-5.49zm11.38 5.76c0 1.152 0.72 1.92 1.72 1.92 1.01 0 1.73-0.768 1.73-1.92v-5.304c0-1.368 1.06-1.824 2.09-2.304s2.06-0.552 2.06-1.68c0-1.248-0.84-1.848-1.68-1.848-1.08 0-1.77 0.48-2.42 1.44h-0.05c0-1.104-0.77-1.44-1.68-1.44-0.86 0-1.77 0.576-1.77 1.728v9.408z"/>
</g>
</g>
</svg>
