<?xml version="1.0" encoding="UTF-8" standalone="no"?>
<svg xmlns:sketch="http://www.bohemiancoding.com/sketch/ns" xmlns="http://www.w3.org/2000/svg" height="71px" width="380px" version="1.1" xmlns:xlink="http://www.w3.org/1999/xlink" viewBox="0 0 380 71">
<title>upvoted + Type something + Group</title>
<desc>Created with Sketch.</desc>
<g fill-rule="evenodd" sketch:type="MSPage" fill="none">
<g sketch:type="MSLayerGroup">
<g sketch:type="MSShapeGroup" fill="#FF4500" transform="translate(261 21)">
<path d="m6.2791 30.926c0.4862 1.399 1.0533 1.892 2.0661 1.892 0.9722 0 1.5799-0.493 2.0258-1.892l4.618-14.771h0.081l4.618 14.771c0.446 1.399 1.053 1.892 2.026 1.892 1.012 0 1.58-0.493 2.066-1.892l5.914-17.486c0.162-0.535 0.284-1.029 0.284-1.399 0-0.699-0.486-1.604-1.702-1.604-0.769 0-1.498 0.288-1.985 1.851l-4.577 14.935h-0.081l-4.497-14.4c-0.486-1.564-0.81-2.386-2.107-2.386-1.296 0-1.62 0.822-2.106 2.386l-4.4968 14.4h-0.081l-4.5777-14.935c-0.4861-1.563-1.2153-1.851-1.985-1.851-1.2154 0-1.7015 0.905-1.7015 1.604 0.000021 0.37 0.12155 0.864 0.2836 1.399l5.9145 17.486zm42.229-7.9c1.54 0 1.985-0.658 1.985-1.933 0-5.267-3.403-10.656-9.277-10.656-6.036 0-9.682 5.266-9.682 11.19 0 5.802 2.998 11.191 9.885 11.191 4.213 0 8.629-2.715 8.629-4.484 0-1.029-0.649-1.605-1.297-1.605-1.337 0-2.552 2.962-7.292 2.962-4.01 0-6.36-2.921-6.36-6.665h13.409zm-13.409-2.715c0.122-3.333 1.702-6.912 6.117-6.748 3.93 0 5.712 3.621 5.712 6.748h-11.829zm34.897 2.715c1.539 0 1.985-0.658 1.985-1.933 0-5.267-3.403-10.656-9.277-10.656-6.036 0-9.682 5.266-9.682 11.19 0 5.802 2.997 11.191 9.884 11.191 4.213 0 8.629-2.715 8.629-4.484 0-1.029-0.648-1.605-1.296-1.605-1.337 0-2.552 2.962-7.292 2.962-4.011 0-6.36-2.921-6.36-6.665h13.409zm-13.409-2.715c0.121-3.333 1.701-6.912 6.117-6.748 3.929 0 5.712 3.621 5.712 6.748h-11.829zm19.219 10.574c0 1.193 0.688 1.933 1.782 1.933s1.782-0.74 1.782-1.933v-8.723l8.994 9.545c0.851 0.864 1.215 1.111 2.066 1.111 0.77 0 1.499-0.617 1.499-1.44 0-0.699-0.162-1.152-0.851-1.851l-9.398-9.422 8.102-6.5c0.688-0.535 0.891-1.029 0.891-1.564 0-0.905-0.567-1.604-1.499-1.604-0.608 0-1.296 0.452-2.025 1.11l-7.779 6.624v-15.428c0-1.1933-0.688-1.9339-1.782-1.9339-1.094 0.00004-1.782 0.7406-1.782 1.9338v28.142zm22.743-28.142c0-1.1932-0.689-1.9338-1.783-1.9338-1.093 0.00004-1.782 0.7406-1.782 1.9338v28.142c0 1.193 0.689 1.933 1.782 1.933 1.094 0 1.783-0.74 1.783-1.933v-28.142zm10.021 29.047l-2.27 6.13c-0.44 1.234-0.52 1.605-0.52 2.016 0 0.905 0.81 1.522 1.62 1.522 0.89 0 1.46-0.576 1.74-1.357l8.99-26.126c0.41-1.234 0.49-1.605 0.49-2.016 0-0.905-0.81-1.522-1.62-1.522-0.89 0-1.46 0.576-1.7 1.357l-4.86 15.017h-0.09l-4.94-15.017c-0.24-0.781-0.89-1.357-1.78-1.357-0.81 0-1.62 0.617-1.62 1.522 0 0.411 0.08 0.782 0.49 2.016l6.07 17.815z"/>
</g>
<g sketch:type="MSShapeGroup">
<path fill="#222" d="m0 22.1c0-3.4 2.1-5.7 5.1-5.7s5.1 2.3 5.1 5.7v18.2c0 4.3 3.2 6.6 6.6 6.6s6.6-2.3 6.6-6.6v-18.2c0-3.4 2.1-5.7 5.1-5.7s5.1 2.3 5.1 5.7v18.4c0 9.1-6 14.9-16.8 14.9s-16.8-5.8-16.8-14.9v-18.4z"/>
<path fill="#222" d="m39.4 22.1c0-3.4 2.1-5.7 5.1-5.7 2.8 0 4.5 1.6 5.1 4.3 1.9-3.1 5.9-4.7 9.7-4.7 11 0 16.4 10.3 16.4 20.2 0 9.6-6.5 19.2-16.8 19.2-3.2 0-6.7-1.2-9.4-3.5v12.5c0 3.4-2.1 5.7-5.1 5.7s-5.1-2.3-5.1-5.7v-42.3h0.1zm18.2 24c5.3 0 7.9-5.5 7.9-10.3s-2.6-10.4-7.9-10.4c-5.5 0-8 5.1-8 10.1 0 4.9 2.4 10.6 8 10.6z"/>
<path fill="#222" d="m77.7 24.4c-0.5-1.3-0.6-2.1-0.6-3 0-3.3 2.6-5 5.3-5 2.8 0 4 2.1 4.5 3.6l6.5 20.1h0.1l6.5-20.1c0.5-1.6 1.7-3.6 4.5-3.6s5.3 1.7 5.3 5c0 0.9-0.1 1.7-0.6 3l-10.2 26.3c-1 2.6-2.1 4.3-5.5 4.3s-4.5-1.6-5.5-4.3l-10.3-26.3z"/>
<path fill="#222" d="m160.8 25.8h-2.3c-2.8 0-4.5-1.7-4.5-4.5 0-2.6 1.9-4.5 4.5-4.5h2.3v-6.1c0-3.4 2.1-5.7 5.1-5.7s5.1 2.3 5.1 5.7v6.1h2.9c2.6 0 4.9 1.2 4.9 4.5 0 3.2-2.3 4.5-4.9 4.5h-2.9v23.5c0 3.4-2.1 5.7-5.1 5.7s-5.1-2.3-5.1-5.7v-23.5z"/>
<path fill="#222" d="m187.5 39.1c0.7 5 4.9 7.4 9.6 7.4 5.2 0 8.9-4.1 11.5-4.1 2.2 0 4.2 2.2 4.2 4.4 0 4.4-9.1 8.6-16.6 8.6-11.5 0-19.1-8.4-19.1-19.6 0-10.3 7.5-19.8 18.3-19.8 11.1 0 18.4 10.1 18.4 18.6 0 3-1.3 4.5-4.5 4.5h-21.8zm16-6.8c-0.6-4.5-3.4-7.8-8.1-7.8-4.5 0-7.6 3.5-8.1 7.8h16.2z"/>
<path fill="#222" d="m252.2 49.3c0 3.4-2.1 5.7-5.1 5.7-2.8 0-4.5-1.6-5.1-4.3-1.9 3.1-5.9 4.7-9.4 4.7-10.3 0-16.8-9.6-16.8-19.2 0-9.9 5.5-20.2 16.4-20.2 3.5 0 7 1.2 9.7 3.5v-13.8c0-3.4 2.1-5.7 5.1-5.7s5.1 2.3 5.1 5.7v43.6h0.1zm-18.2-23.9c-5.3 0-7.9 5.6-7.9 10.4 0 4.7 2.6 10.3 7.9 10.3 5.6 0 8-5.7 8-10.6 0-5-2.6-10.1-8-10.1z"/>
<g transform="translate(111 15)">
<circle cy="21" cx="21.7" r="21" fill="#F04B23"/>
<path fill="#fff" d="m21.6 8.8l-11.2 12.2h7v10.5h8.7v-10.5h7l-11.5-12.2z"/>
</g>
</g>
</g>
</g>
</svg>
